<?xml version="1.0" encoding="UTF-8"?>
<!DOCTYPE svg PUBLIC "-//W3C//DTD SVG 1.1//EN" "http://www.w3.org/Graphics/SVG/1.1/DTD/svg11.dtd">
<svg version="1.1" xmlns="http://www.w3.org/2000/svg" xmlns:xlink="http://www.w3.org/1999/xlink" x="0px" y="0px" width="184.411" height="112.388" viewBox="0, 0, 184.411, 112.388">
  <g id="Layer 1">
    <path d="M171.458,112.387 C178.992,112.242 184.061,106.128 184.412,98.914 L184.412,13.473 C184.31,6.066 178.796,0.385 171.458,0 L0,0 L0,112.387 z" fill="url(#Gradient_1)"/>
    <g>
      <g>
        <g>
          <g>
            <path d="M1.417,106.245 L167.043,106.244 C173.83,106.134 178.709,100.854 179.043,94.244 L179.043,18.142 C178.933,11.355 173.653,6.476 167.043,6.142 L1.417,6.143 z" fill="url(#Gradient_2)"/>
            <path d="M0,6.142 L1.417,6.142 L1.417,106.245 L0,106.245 z" fill="url(#Gradient_3)"/>
          </g>
          <path d="M1.417,106.244 L167.043,106.244 C173.83,106.134 178.709,100.854 179.043,94.244 L179.043,18.142 C178.933,11.355 173.653,6.476 167.043,6.142 L1.417,6.143 z" fill="url(#Gradient_4)"/>
        </g>
        <g>
          <g>
            <path d="M93.365,81.194 C93.355,78.265 93.654,75.34 95.31,72.877 C96.533,71.056 98.241,69.509 99.868,68.082 C104.225,64.262 111.907,60.739 115.362,56.42 C115.6,56.077 115.882,55.761 116.075,55.391 C116.638,54.315 116.907,53.051 117.536,52.007 C117.895,51.411 118.309,51.072 118.554,50.398 C120.383,44.822 117.843,40.246 111.775,39.754 C110.227,39.896 109.632,39.809 108.1,40.829 C105.796,42.361 103.249,48.221 102.707,51.024 L94.485,51.024 C92.429,30.57 124.344,28.705 127.37,48.256 C128.45,56.174 123.796,59.099 117.786,63.055 C113.511,65.895 109.35,68.553 106.175,72.654 L107.643,72.654 L107.61,72.682 C105.155,75.26 106.131,74.085 104.565,76.108 L127.735,76.108 L127.735,81.194 z" fill="url(#Gradient_5)"/>
            <path d="M127.888,81.165 L127.888,76.079 L103.121,76.064 C104.687,74.041 103.525,75.343 105.98,72.765 L106.136,72.671 L129.498,72.625 L129.498,81.165 z M94.509,74.465 C97.002,66.828 104.316,62.328 110.651,58.126 C113.103,56.5 117.696,53.033 118.791,49.629 C118.509,55.767 111.29,59.997 107.378,62.709 C103.027,65.725 98.734,68.628 95.463,72.848 z M102.86,50.995 C103.187,49.287 103.628,47.274 104.842,45.937 C104.283,47.567 104.241,49.294 104.158,50.995 z M126.963,54.81 C129.58,43.115 122.462,35.099 110.808,34.639 C104.684,34.658 98.731,37.224 95.763,42.789 C99.655,31.099 113.105,28.142 122.977,34.322 C129.605,38.471 130.632,47.651 127.385,54.178 z" fill="#000000"/>
          </g>
          <g>
            <path d="M83.293,59.938 L83.293,55.917 L69.363,55.917 L69.363,41.987 L63.475,41.987 L63.475,38.518 L70.965,38.518 L70.965,52.448 L84.895,52.448 L84.895,59.938 z" fill="#000000"/>
            <path d="M63.475,73.868 L63.475,59.938 L49.545,59.938 L49.545,55.917 L61.873,55.917 L61.873,52.448 L63.475,52.448 L63.475,41.987 L69.363,41.987 L69.363,55.917 L83.293,55.917 L83.293,59.938 L70.965,59.938 L70.965,63.407 L69.363,63.407 L69.363,73.868 z" fill="url(#Gradient_6)"/>
            <path d="M69.363,73.868 L69.363,59.956 L70.95,59.956 L70.95,73.868 z" fill="#000000"/>
            <path d="M49.545,55.917 L49.545,52.448 L63.466,52.448 L63.466,55.917 z" fill="#000000"/>
          </g>
        </g>
      </g>
      <path d="M1.417,106.244 L167.043,106.244 C173.83,106.134 178.709,100.854 179.043,94.244 L179.043,18.142 C178.933,11.355 173.653,6.476 167.043,6.142 L1.417,6.143 z" fill="#000000" opacity="0.3"/>
    </g>
  </g>
  <defs>
    <linearGradient id="Gradient_1" gradientUnits="userSpaceOnUse" x1="-92.206" y1="0" x2="-92.206" y2="112.387" gradientTransform="matrix(-1, 0, 0, 1, 0, 0)">
      <stop offset="0" stop-color="#151515"/>
      <stop offset="0.475" stop-color="#2B2B2B"/>
      <stop offset="0.558" stop-color="#555555"/>
      <stop offset="1" stop-color="#D5D5D5"/>
    </linearGradient>
    <linearGradient id="Gradient_2" gradientUnits="userSpaceOnUse" x1="90.23" y1="6.142" x2="90.23" y2="106.245">
      <stop offset="0" stop-color="#D5D5D5"/>
      <stop offset="0.575" stop-color="#555555"/>
      <stop offset="0.666" stop-color="#2B2B2B"/>
      <stop offset="1" stop-color="#151515"/>
    </linearGradient>
    <linearGradient id="Gradient_3" gradientUnits="userSpaceOnUse" x1="0.709" y1="6.142" x2="0.709" y2="106.245">
      <stop offset="0" stop-color="#151515"/>
      <stop offset="0.475" stop-color="#2B2B2B"/>
      <stop offset="0.558" stop-color="#555555"/>
      <stop offset="1" stop-color="#D5D5D5"/>
    </linearGradient>
    <linearGradient id="Gradient_4" gradientUnits="userSpaceOnUse" x1="1.307" y1="30.307" x2="179.118" y2="30.307">
      <stop offset="0" stop-color="#333333" stop-opacity="0"/>
      <stop offset="0.053" stop-color="#1A1A1A" stop-opacity="0"/>
      <stop offset="0.086" stop-color="#000000" stop-opacity="0"/>
      <stop offset="0.483" stop-color="#6C6C6C" stop-opacity="0"/>
      <stop offset="0.912" stop-color="#FFFFFF" stop-opacity="0"/>
      <stop offset="0.966" stop-color="#EFEFEF" stop-opacity="0.49"/>
      <stop offset="1" stop-color="#FFFFFF"/>
    </linearGradient>
    <linearGradient id="Gradient_5" gradientUnits="userSpaceOnUse" x1="110.55" y1="81.194" x2="110.55" y2="34.589">
      <stop offset="0" stop-color="#2B2B2B"/>
      <stop offset="1" stop-color="#D5D5D5"/>
    </linearGradient>
    <linearGradient id="Gradient_6" gradientUnits="userSpaceOnUse" x1="66.419" y1="73.868" x2="66.419" y2="41.987">
      <stop offset="0" stop-color="#2B2B2B"/>
      <stop offset="1" stop-color="#D5D5D5"/>
    </linearGradient>
  </defs>
</svg>
