<?xml version="1.0" encoding="UTF-8"?>
<!DOCTYPE svg PUBLIC "-//W3C//DTD SVG 1.1//EN" "http://www.w3.org/Graphics/SVG/1.1/DTD/svg11.dtd">
<svg version="1.1" xmlns="http://www.w3.org/2000/svg" xmlns:xlink="http://www.w3.org/1999/xlink" x="0px" y="0px" width="141.732" height="141.732" viewBox="0, 0, 141.732, 141.732">
  <g id="Layer 1">
    <g>
      <g>
        <path d="M121.033,20.699 C148.74,48.405 148.74,93.327 121.033,121.033 C93.327,148.74 48.405,148.74 20.699,121.033 C-7.008,93.327 -7.008,48.405 20.699,20.699 C48.405,-7.008 93.327,-7.008 121.033,20.699" fill="url(#Gradient_1)"/>
        <path d="M114.01,27.722 C137.838,51.55 137.838,90.182 114.01,114.01 C90.182,137.838 51.55,137.838 27.722,114.01 C3.895,90.182 3.895,51.55 27.722,27.722 C51.55,3.895 90.182,3.895 114.01,27.722" fill="url(#Gradient_2)"/>
      </g>
      <g>
        <path d="M75.506,103.797 L50.748,82.568 L26.221,82.568 L26.221,59.164 L50.748,59.164 L75.506,37.935 z" fill="#FFFFFF"/>
        <g>
          <path d="M78.732,88.986 C80.281,87.376 81.705,85.625 82.855,83.706 C83.627,82.42 83.917,81.543 84.494,80.006 C87.068,73.159 86.446,65.235 83.224,58.712 C82.11,56.457 80.409,54.592 78.732,52.747 L81.517,52.747 C88.074,58.915 91.14,68.138 88.809,76.934 C87.565,81.624 84.934,85.598 81.517,88.986 z" fill="#000000" fill-opacity="0"/>
          <path d="M85.853,95.911 C87.994,93.686 89.961,91.266 91.552,88.614 C92.618,86.836 93.019,85.623 93.817,83.499 C97.374,74.035 96.515,63.083 92.062,54.066 C90.522,50.949 88.171,48.372 85.853,45.822 L89.702,45.822 C98.765,54.347 103.003,67.096 99.78,79.252 C98.061,85.736 94.425,91.228 89.702,95.911 z" fill="#000000" fill-opacity="0"/>
          <path d="M96.142,103.27 C98.911,100.391 101.457,97.26 103.515,93.829 C104.894,91.528 105.413,89.96 106.446,87.211 C111.048,74.966 109.936,60.796 104.174,49.13 C102.182,45.097 99.141,41.762 96.142,38.462 L101.122,38.462 C112.848,49.493 118.331,65.988 114.161,81.717 C111.937,90.105 107.232,97.211 101.122,103.27 z" fill="#000000" fill-opacity="0"/>
        </g>
      </g>
    </g>
  </g>
  <defs>
    <radialGradient id="Gradient_1" gradientUnits="userSpaceOnUse" cx="70.202" cy="18.483" r="172.512">
      <stop offset="0" stop-color="#FFFFFF"/>
      <stop offset="0.355" stop-color="#959595"/>
      <stop offset="0.52" stop-color="#404040"/>
      <stop offset="1" stop-color="#151515"/>
    </radialGradient>
    <linearGradient id="Gradient_2" gradientUnits="userSpaceOnUse" x1="70.866" y1="131.811" x2="70.866" y2="9.921">
      <stop offset="0" stop-color="#272752"/>
      <stop offset="1" stop-color="#D4D8E4"/>
    </linearGradient>
  </defs>
</svg>
