<?xml version="1.0" encoding="UTF-8"?>
<!DOCTYPE svg PUBLIC "-//W3C//DTD SVG 1.1//EN" "http://www.w3.org/Graphics/SVG/1.1/DTD/svg11.dtd">
<svg version="1.1" xmlns="http://www.w3.org/2000/svg" xmlns:xlink="http://www.w3.org/1999/xlink" x="0px" y="0px" width="365.301" height="138.552" viewBox="0, 0, 365.301, 138.552">
  <g id="Layer 1">
    <g>
      <g>
        <path d="M0,138.552 L0,12 C0.381,5.257 5.346,0.427 12,0 L353.3,0 C360.142,0.174 364.684,5.462 365.3,12 L365.3,138.552 z" fill="#000000"/>
        <path d="M1.416,138.552 L1.416,13.294 C1.796,6.608 6.732,1.84 13.323,1.417 L351.977,1.417 C358.755,1.588 363.271,6.812 363.883,13.294 L363.883,138.552 z" fill="url(#Gradient_1)"/>
        <path d="M4.252,137.135 L4.252,15.762 C4.627,9.248 9.477,4.66 15.88,4.253 L349.422,4.253 C356.007,4.415 360.449,9.446 361.05,15.762 L361.05,137.135 z" fill="url(#Gradient_2)"/>
      </g>
      <g>
        <path d="M210.02,105.559 L210.02,32.996 L229.004,32.996 C236.505,32.808 246.374,33.838 249.571,41.908 C251.558,46.924 250.824,52.437 250.65,57.686 C250.482,62.809 250.912,68.773 246.981,72.718 C243.31,76.401 237.588,76.298 232.765,76.48 L228.899,76.449 L228.899,105.559 z M228.899,63.898 L230.27,63.898 C232.735,63.843 234.107,62.915 234.601,60.408 C234.991,58.427 234.894,56.445 234.893,54.445 C234.89,51.992 235.457,48.574 233.698,46.549 C232.562,45.241 230.443,45.445 228.899,45.441 z" stroke="#292929" stroke-width="2" fill="#AAAAAA"/>
        <path d="M157.708,105.559 L167.305,32.996 L194.622,32.996 L205.379,105.559 L185.929,105.559 L184.971,92.48 L178.063,92.48 L177.02,105.559 z M178.063,79.508 L184.602,79.508 C183.329,69.415 182.501,59.275 181.754,49.133 C179.439,67.303 180.557,58.213 178.399,76.403 z" stroke="#292929" stroke-width="2" fill="#AAAAAA"/>
        <path d="M125.75,105.559 L125.75,47.445 L114.465,47.445 L114.465,32.996 L155.704,32.996 L155.704,47.445 L144.629,47.445 L144.629,105.559 z" stroke="#292929" stroke-width="2" fill="#AAAAAA"/>
      </g>
    </g>
  </g>
  <defs>
    <linearGradient id="Gradient_1" gradientUnits="userSpaceOnUse" x1="182.65" y1="-1.417" x2="182.65" y2="-138.552" gradientTransform="matrix(1, 0, 0, -1, 0, 0)">
      <stop offset="0" stop-color="#2B2B2B"/>
      <stop offset="1" stop-color="#D5D5D5"/>
    </linearGradient>
    <linearGradient id="Gradient_2" gradientUnits="userSpaceOnUse" x1="182.651" y1="-137.135" x2="182.651" y2="-4.253" gradientTransform="matrix(1, 0, 0, -1, 0, 0)">
      <stop offset="0" stop-color="#656565"/>
      <stop offset="1" stop-color="#D5D5D5"/>
    </linearGradient>
  </defs>
</svg>
