<?xml version="1.0" encoding="UTF-8"?>
<!DOCTYPE svg PUBLIC "-//W3C//DTD SVG 1.1//EN" "http://www.w3.org/Graphics/SVG/1.1/DTD/svg11.dtd">
<svg version="1.1" xmlns="http://www.w3.org/2000/svg" xmlns:xlink="http://www.w3.org/1999/xlink" x="0px" y="0px" width="184.411" height="112.388" viewBox="0, 0, 184.411, 112.388">
  <g id="Layer 1">
    <path d="M12.953,112.387 C5.42,112.242 0.35,106.128 0,98.914 L0,13.473 C0.102,6.066 5.615,0.385 12.953,0 L184.412,0 L184.412,112.387 z" fill="url(#Gradient_1)"/>
    <g>
      <g>
        <g>
          <path d="M184.412,106.244 L18.786,106.244 C11.999,106.134 7.12,100.854 6.786,94.244 L6.786,18.142 C6.896,11.355 12.176,6.476 18.786,6.142 L184.412,6.143 z" fill="url(#Gradient_2)"/>
          <path d="M182.994,6.142 L184.412,6.142 L184.412,106.245 L182.994,106.245 z" fill="url(#Gradient_3)"/>
        </g>
        <path d="M184.412,106.244 L18.786,106.244 C11.999,106.134 7.12,100.854 6.786,94.244 L6.786,18.142 C6.896,11.355 12.176,6.476 18.786,6.142 L184.412,6.143 z" fill="url(#Gradient_4)"/>
      </g>
      <g>
        <g>
          <path d="M61.066,60.463 L61.066,55.394 L41.595,55.394 L41.595,51.923 L62.665,51.923 L62.665,60.463 z" fill="#000000"/>
          <path d="M41.595,60.463 L41.595,55.394 L61.066,55.394 L61.066,60.463 z" fill="url(#Gradient_5)"/>
        </g>
        <g>
          <path d="M98.933,80.782 L98.933,35.25 L91.565,35.25 C92.517,32.698 92.21,33.867 92.625,31.782 L100.535,31.782 L100.535,80.782 z" fill="#000000"/>
          <path d="M129.803,77.04 C128.03,76.887 127.979,77.03 126.076,75.938 C125.583,75.655 124.698,74.519 124.433,74.05 C122.091,69.919 121.932,65.282 121.832,60.645 C121.722,55.565 121.611,49.574 124.545,45.187 C123.75,47.714 123.539,50.393 123.46,53.027 C123.323,57.543 123.108,64.156 124.862,68.219 C125.385,69.431 126.338,71.702 127.677,72.47 C131.026,74.391 134.465,73.853 136.791,70.722 C136.128,72.428 135.381,74.948 133.616,75.938 C132.872,76.355 132.041,76.591 131.253,76.918 z M145.9,73.405 C149.403,62.009 149.643,43.463 138.347,36.265 C135.874,34.689 132.637,34.393 129.803,34.27 C123.765,34.274 118.182,37.02 115.437,42.534 C116.731,38.293 119.263,35.145 122.932,32.797 C129.561,28.555 141.33,30.925 145.286,37.853 C150.691,47.316 150.636,60.559 147.247,70.7 z" fill="#000000"/>
          <path d="M78.275,44.942 L78.275,41.512 C83.055,41.613 87.684,40.558 90.734,36.652 C90.45,37.414 90.212,38.195 89.881,38.939 C89.669,39.415 88.936,40.46 88.571,40.839 C85.803,43.716 83.088,44.41 79.219,44.919 z" fill="#000000"/>
          <path d="M90.734,36.652 L90.756,36.594 L91.023,35.25 L91.565,35.25 C91.346,35.836 91.523,35.403 90.875,36.472 z" fill="#006F3F"/>
          <path d="M131.405,81.692 C117.733,81.118 113.536,70.015 113.493,57.948 C113.476,52.995 113.282,45.861 116.041,41.321 C120.219,34.449 129.544,32.753 136.629,35.636 C147.379,40.01 148.305,52.848 147.78,62.955 C147.551,67.37 147.415,72.763 144.151,76.197 C141.063,79.447 137.531,80.737 133.231,81.613 z M128.386,76.918 C132.775,77.646 135.587,74.669 136.81,70.817 L136.781,70.757 C140.15,65.097 139.859,57.793 139.438,51.459 C139.072,45.939 137.788,39.738 131.405,38.992 C130.126,39.045 128.797,39.259 127.754,40.09 C125.406,41.961 122.601,48.818 122.204,51.792 C121.808,54.762 121.833,56.69 121.823,59.54 C121.803,65.335 121.883,71.485 126.076,75.938 z" fill="url(#Gradient_6)"/>
          <path d="M90.595,80.782 L90.595,49.002 L78.275,49.002 L78.275,44.942 C82.574,44.818 87.021,43.465 89.481,39.72 C90.097,38.78 90.252,37.645 90.734,36.652 C90.972,36.163 91.327,35.739 91.565,35.25 L98.933,35.25 L98.933,80.782 z" fill="url(#Gradient_7)"/>
        </g>
      </g>
    </g>
  </g>
  <defs>
    <linearGradient id="Gradient_1" gradientUnits="userSpaceOnUse" x1="92.206" y1="0" x2="92.206" y2="112.387">
      <stop offset="0" stop-color="#151515"/>
      <stop offset="0.475" stop-color="#2B2B2B"/>
      <stop offset="0.558" stop-color="#555555"/>
      <stop offset="1" stop-color="#D5D5D5"/>
    </linearGradient>
    <linearGradient id="Gradient_2" gradientUnits="userSpaceOnUse" x1="95.599" y1="106.244" x2="95.599" y2="6.142">
      <stop offset="0" stop-color="#14132B"/>
      <stop offset="0.475" stop-color="#272752"/>
      <stop offset="0.558" stop-color="#4E548B"/>
      <stop offset="1" stop-color="#D4D8E4"/>
    </linearGradient>
    <linearGradient id="Gradient_3" gradientUnits="userSpaceOnUse" x1="183.703" y1="6.142" x2="183.703" y2="106.245">
      <stop offset="0" stop-color="#151515"/>
      <stop offset="0.475" stop-color="#2B2B2B"/>
      <stop offset="0.558" stop-color="#555555"/>
      <stop offset="1" stop-color="#D5D5D5"/>
    </linearGradient>
    <linearGradient id="Gradient_4" gradientUnits="userSpaceOnUse" x1="6.676" y1="30.307" x2="184.486" y2="30.307">
      <stop offset="0" stop-color="#333333" stop-opacity="0.49"/>
      <stop offset="0.053" stop-color="#1A1A1A" stop-opacity="0.17"/>
      <stop offset="0.091" stop-color="#000000" stop-opacity="0"/>
      <stop offset="0.483" stop-color="#6C6C6C" stop-opacity="0"/>
      <stop offset="0.663" stop-color="#FFFFFF" stop-opacity="0"/>
      <stop offset="0.824" stop-color="#EFEFEF" stop-opacity="0"/>
      <stop offset="1" stop-color="#FFFFFF" stop-opacity="0"/>
    </linearGradient>
    <linearGradient id="Gradient_5" gradientUnits="userSpaceOnUse" x1="51.33" y1="60.463" x2="51.33" y2="55.394">
      <stop offset="0" stop-color="#2B2B2B"/>
      <stop offset="1" stop-color="#D5D5D5"/>
    </linearGradient>
    <linearGradient id="Gradient_6" gradientUnits="userSpaceOnUse" x1="130.688" y1="81.692" x2="130.688" y2="34.293">
      <stop offset="0" stop-color="#2B2B2B"/>
      <stop offset="1" stop-color="#D5D5D5"/>
    </linearGradient>
    <linearGradient id="Gradient_7" gradientUnits="userSpaceOnUse" x1="88.604" y1="80.782" x2="88.604" y2="35.25">
      <stop offset="0" stop-color="#2B2B2B"/>
      <stop offset="1" stop-color="#D5D5D5"/>
    </linearGradient>
  </defs>
</svg>
