<?xml version="1.0" encoding="UTF-8"?>
<!DOCTYPE svg PUBLIC "-//W3C//DTD SVG 1.1//EN" "http://www.w3.org/Graphics/SVG/1.1/DTD/svg11.dtd">
<svg version="1.1" xmlns="http://www.w3.org/2000/svg" xmlns:xlink="http://www.w3.org/1999/xlink" x="0px" y="0px" width="184.411" height="112.388" viewBox="0, 0, 184.411, 112.388">
  <g id="Layer 1">
    <path d="M171.458,112.387 C178.992,112.242 184.061,106.128 184.412,98.914 L184.412,13.473 C184.31,6.066 178.796,0.385 171.458,0 L0,0 L0,112.387 z" fill="url(#Gradient_1)"/>
    <g>
      <g>
        <g>
          <path d="M1.417,106.245 L167.043,106.244 C173.83,106.134 178.709,100.854 179.043,94.244 L179.043,18.142 C178.933,11.355 173.653,6.476 167.043,6.142 L1.417,6.143 z" fill="url(#Gradient_2)"/>
          <path d="M1.417,106.245 L167.043,106.244 C173.83,106.134 178.709,100.854 179.043,94.244 L179.043,18.142 C178.933,11.355 173.653,6.476 167.043,6.142 L1.417,6.143 z" fill="url(#Gradient_3)"/>
        </g>
        <path d="M0,6.142 L1.417,6.142 L1.417,106.245 L0,106.245 z" fill="url(#Gradient_4)"/>
      </g>
      <g>
        <g>
          <path d="M96.426,80.782 L96.426,35.25 L89.058,35.25 C90.01,32.698 89.703,33.867 90.117,31.782 L98.027,31.782 L98.027,80.782 z" fill="#000000"/>
          <path d="M127.296,77.04 C125.523,76.887 125.472,77.03 123.568,75.938 C123.076,75.655 122.191,74.519 121.925,74.05 C119.584,69.919 119.425,65.282 119.325,60.645 C119.215,55.565 119.104,49.574 122.037,45.187 C121.242,47.714 121.032,50.393 120.952,53.027 C120.816,57.543 120.601,64.156 122.355,68.219 C122.877,69.431 123.831,71.702 125.17,72.47 C128.519,74.391 131.957,73.853 134.284,70.722 C133.621,72.428 132.873,74.948 131.109,75.938 C130.365,76.355 129.534,76.591 128.746,76.918 z M143.393,73.405 C146.896,62.009 147.136,43.463 135.84,36.265 C133.367,34.689 130.13,34.393 127.296,34.27 C121.258,34.274 115.675,37.02 112.93,42.534 C114.224,38.293 116.756,35.145 120.425,32.797 C127.054,28.555 138.823,30.925 142.779,37.853 C148.184,47.316 148.129,60.559 144.739,70.7 z" fill="#000000"/>
          <path d="M75.767,44.942 L75.767,41.512 C80.548,41.613 85.177,40.558 88.227,36.652 C87.943,37.414 87.704,38.195 87.374,38.939 C87.162,39.415 86.428,40.46 86.064,40.839 C83.296,43.716 80.581,44.41 76.712,44.919 z" fill="#000000"/>
          <path d="M88.227,36.652 L88.249,36.594 L88.516,35.25 L89.058,35.25 C88.839,35.836 89.016,35.403 88.367,36.472 z" fill="#006F3F"/>
          <path d="M128.897,81.692 C115.225,81.118 111.029,70.015 110.986,57.948 C110.968,52.995 110.774,45.861 113.534,41.321 C117.712,34.449 127.037,32.753 134.122,35.636 C144.872,40.01 145.798,52.848 145.273,62.955 C145.044,67.37 144.908,72.763 141.644,76.197 C138.556,79.447 135.024,80.737 130.724,81.613 z M125.878,76.918 C130.267,77.646 133.08,74.669 134.303,70.817 L134.273,70.757 C137.643,65.097 137.352,57.793 136.931,51.459 C136.565,45.939 135.28,39.738 128.897,38.992 C127.619,39.045 126.29,39.259 125.247,40.09 C122.899,41.961 120.094,48.818 119.697,51.792 C119.301,54.762 119.326,56.69 119.316,59.54 C119.295,65.335 119.376,71.485 123.568,75.938 z" fill="url(#Gradient_5)"/>
          <path d="M88.087,80.782 L88.087,49.002 L75.767,49.002 L75.767,44.942 C80.067,44.818 84.514,43.465 86.973,39.72 C87.59,38.78 87.745,37.645 88.227,36.652 C88.464,36.163 88.82,35.739 89.058,35.25 L96.426,35.25 L96.426,80.782 z" fill="url(#Gradient_6)"/>
        </g>
        <g>
          <path d="M65.696,59.938 L65.696,55.917 L51.766,55.917 L51.766,41.987 L45.877,41.987 L45.877,38.518 L53.367,38.518 L53.367,52.448 L67.297,52.448 L67.297,59.938 z" fill="#000000"/>
          <path d="M45.877,73.868 L45.877,59.938 L31.947,59.938 L31.947,55.917 L44.276,55.917 L44.276,52.448 L45.877,52.448 L45.877,41.987 L51.766,41.987 L51.766,55.917 L65.696,55.917 L65.696,59.938 L53.367,59.938 L53.367,63.407 L51.766,63.407 L51.766,73.868 z" fill="url(#Gradient_7)"/>
          <path d="M51.766,73.868 L51.766,59.956 L53.352,59.956 L53.352,73.868 z" fill="#000000"/>
          <path d="M31.947,55.917 L31.947,52.448 L45.869,52.448 L45.869,55.917 z" fill="#000000"/>
        </g>
      </g>
    </g>
  </g>
  <defs>
    <linearGradient id="Gradient_1" gradientUnits="userSpaceOnUse" x1="-92.206" y1="0" x2="-92.206" y2="112.387" gradientTransform="matrix(-1, 0, 0, 1, 0, 0)">
      <stop offset="0" stop-color="#151515"/>
      <stop offset="0.475" stop-color="#2B2B2B"/>
      <stop offset="0.558" stop-color="#555555"/>
      <stop offset="1" stop-color="#D5D5D5"/>
    </linearGradient>
    <linearGradient id="Gradient_2" gradientUnits="userSpaceOnUse" x1="90.23" y1="6.142" x2="90.23" y2="106.245">
      <stop offset="0" stop-color="#D5D5D5"/>
      <stop offset="0.442" stop-color="#555555"/>
      <stop offset="0.525" stop-color="#2B2B2B"/>
      <stop offset="1" stop-color="#151515"/>
    </linearGradient>
    <linearGradient id="Gradient_3" gradientUnits="userSpaceOnUse" x1="1.307" y1="30.307" x2="179.118" y2="30.307">
      <stop offset="0" stop-color="#333333" stop-opacity="0"/>
      <stop offset="0.053" stop-color="#1A1A1A" stop-opacity="0"/>
      <stop offset="0.086" stop-color="#000000" stop-opacity="0"/>
      <stop offset="0.483" stop-color="#6C6C6C" stop-opacity="0"/>
      <stop offset="0.912" stop-color="#FFFFFF" stop-opacity="0"/>
      <stop offset="0.966" stop-color="#EFEFEF" stop-opacity="0.49"/>
      <stop offset="1" stop-color="#FFFFFF"/>
    </linearGradient>
    <linearGradient id="Gradient_4" gradientUnits="userSpaceOnUse" x1="0.709" y1="6.142" x2="0.709" y2="106.245">
      <stop offset="0" stop-color="#151515"/>
      <stop offset="0.475" stop-color="#2B2B2B"/>
      <stop offset="0.558" stop-color="#555555"/>
      <stop offset="1" stop-color="#D5D5D5"/>
    </linearGradient>
    <linearGradient id="Gradient_5" gradientUnits="userSpaceOnUse" x1="128.181" y1="81.692" x2="128.181" y2="34.293">
      <stop offset="0" stop-color="#2B2B2B"/>
      <stop offset="1" stop-color="#D5D5D5"/>
    </linearGradient>
    <linearGradient id="Gradient_6" gradientUnits="userSpaceOnUse" x1="86.097" y1="80.782" x2="86.097" y2="35.25">
      <stop offset="0" stop-color="#2B2B2B"/>
      <stop offset="1" stop-color="#D5D5D5"/>
    </linearGradient>
    <linearGradient id="Gradient_7" gradientUnits="userSpaceOnUse" x1="48.822" y1="73.868" x2="48.822" y2="41.987">
      <stop offset="0" stop-color="#2B2B2B"/>
      <stop offset="1" stop-color="#D5D5D5"/>
    </linearGradient>
  </defs>
</svg>
