<?xml version="1.0" encoding="UTF-8"?>
<!DOCTYPE svg PUBLIC "-//W3C//DTD SVG 1.1//EN" "http://www.w3.org/Graphics/SVG/1.1/DTD/svg11.dtd">
<svg version="1.1" xmlns="http://www.w3.org/2000/svg" xmlns:xlink="http://www.w3.org/1999/xlink" x="0px" y="0px" width="184.411" height="112.388" viewBox="0, 0, 184.411, 112.388">
  <g id="Layer 1">
    <path d="M171.458,112.387 C178.992,112.242 184.061,106.128 184.412,98.914 L184.412,13.473 C184.31,6.066 178.796,0.385 171.458,0 L0,0 L0,112.387 z" fill="url(#Gradient_1)"/>
    <g>
      <path d="M1.417,106.245 L167.043,106.244 C173.83,106.134 178.709,100.854 179.043,94.244 L179.043,18.142 C178.933,11.355 173.653,6.476 167.043,6.142 L1.417,6.143 z" fill="url(#Gradient_2)"/>
      <path d="M0,6.142 L1.417,6.142 L1.417,106.245 L0,106.245 z" fill="url(#Gradient_3)"/>
    </g>
    <path d="M1.417,106.245 L167.043,106.244 C173.83,106.134 178.709,100.854 179.043,94.244 L179.043,18.142 C178.933,11.355 173.653,6.476 167.043,6.142 L1.417,6.143 z" fill="url(#Gradient_4)"/>
    <path d="M1.417,106.245 L167.043,106.244 C173.83,106.134 178.709,100.854 179.043,94.244 L179.043,18.142 C178.933,11.355 173.653,6.476 167.043,6.142 L1.417,6.143 z" fill="#000000" opacity="0.3"/>
    <g>
      <g>
        <path d="M96.233,81.111 L96.233,35.579 L88.865,35.579 C89.817,33.026 89.51,34.195 89.925,32.111 L97.835,32.111 L97.835,81.111 z" fill="#000000"/>
        <path d="M127.103,77.369 C125.33,77.216 125.279,77.359 123.376,76.266 C122.883,75.984 121.998,74.847 121.733,74.378 C119.391,70.247 119.232,65.61 119.132,60.973 C119.022,55.893 118.911,49.902 121.845,45.516 C121.05,48.043 120.84,50.721 120.76,53.356 C120.623,57.871 120.408,64.485 122.162,68.548 C122.685,69.759 123.638,72.03 124.977,72.798 C128.326,74.72 131.765,74.181 134.091,71.05 C133.428,72.757 132.681,75.276 130.916,76.266 C130.172,76.683 129.341,76.92 128.553,77.246 z M143.2,73.733 C146.703,62.337 146.943,43.791 135.647,36.594 C133.174,35.018 129.937,34.721 127.103,34.599 C121.065,34.602 115.482,37.348 112.737,42.863 C114.031,38.621 116.563,35.474 120.233,33.126 C126.862,28.883 138.63,31.254 142.587,38.181 C147.991,47.645 147.937,60.887 144.547,71.028 z" fill="#000000"/>
        <path d="M75.575,45.27 L75.575,41.841 C80.355,41.942 84.984,40.886 88.034,36.98 C87.75,37.742 87.512,38.523 87.181,39.267 C86.969,39.743 86.236,40.789 85.871,41.168 C83.103,44.045 80.388,44.738 76.519,45.248 z" fill="#000000"/>
        <path d="M88.034,36.98 L88.056,36.922 L88.323,35.579 L88.865,35.579 C88.646,36.165 88.823,35.732 88.175,36.801 z" fill="#006F3F"/>
        <path d="M128.705,82.021 C115.033,81.446 110.836,70.343 110.793,58.276 C110.776,53.323 110.582,46.189 113.342,41.649 C117.519,34.777 126.844,33.082 133.929,35.964 C144.679,40.339 145.605,53.176 145.08,63.283 C144.851,67.698 144.715,73.091 141.451,76.526 C138.363,79.775 134.831,81.065 130.531,81.942 z M125.686,77.246 C130.075,77.975 132.887,74.998 134.11,71.145 L134.081,71.085 C137.45,65.426 137.159,58.121 136.738,51.788 C136.372,46.267 135.088,40.066 128.705,39.321 C127.426,39.373 126.097,39.587 125.054,40.418 C122.706,42.29 119.901,49.146 119.505,52.121 C119.109,55.091 119.133,57.018 119.123,59.869 C119.103,65.663 119.184,71.814 123.376,76.266 z" fill="url(#Gradient_5)"/>
        <path d="M87.895,81.111 L87.895,49.331 L75.575,49.331 L75.575,45.27 C79.874,45.146 84.321,43.794 86.781,40.048 C87.397,39.109 87.552,37.973 88.034,36.98 C88.272,36.492 88.627,36.067 88.865,35.579 L96.233,35.579 L96.233,81.111 z" fill="url(#Gradient_6)"/>
      </g>
      <g>
        <path d="M65.503,60.267 L65.503,56.245 L51.573,56.245 L51.573,42.315 L45.685,42.315 L45.685,38.847 L53.175,38.847 L53.175,52.777 L67.105,52.777 L67.105,60.267 z" fill="#000000"/>
        <path d="M45.685,74.197 L45.685,60.267 L31.755,60.267 L31.755,56.245 L44.083,56.245 L44.083,52.777 L45.685,52.777 L45.685,42.315 L51.573,42.315 L51.573,56.245 L65.503,56.245 L65.503,60.267 L53.175,60.267 L53.175,63.735 L51.573,63.735 L51.573,74.197 z" fill="url(#Gradient_7)"/>
        <path d="M51.573,74.197 L51.573,60.284 L53.16,60.284 L53.16,74.197 z" fill="#000000"/>
        <path d="M31.755,56.245 L31.755,52.777 L45.676,52.777 L45.676,56.245 z" fill="#000000"/>
      </g>
    </g>
  </g>
  <defs>
    <linearGradient id="Gradient_1" gradientUnits="userSpaceOnUse" x1="-92.206" y1="0" x2="-92.206" y2="112.387" gradientTransform="matrix(-1, 0, 0, 1, 0, 0)">
      <stop offset="0" stop-color="#151515"/>
      <stop offset="0.475" stop-color="#2B2B2B"/>
      <stop offset="0.558" stop-color="#555555"/>
      <stop offset="1" stop-color="#D5D5D5"/>
    </linearGradient>
    <linearGradient id="Gradient_2" gradientUnits="userSpaceOnUse" x1="90.23" y1="6.142" x2="90.23" y2="106.245">
      <stop offset="0" stop-color="#D5D5D5"/>
      <stop offset="0.575" stop-color="#555555"/>
      <stop offset="0.666" stop-color="#2B2B2B"/>
      <stop offset="1" stop-color="#151515"/>
    </linearGradient>
    <linearGradient id="Gradient_3" gradientUnits="userSpaceOnUse" x1="0.709" y1="6.142" x2="0.709" y2="106.245">
      <stop offset="0" stop-color="#151515"/>
      <stop offset="0.475" stop-color="#2B2B2B"/>
      <stop offset="0.558" stop-color="#555555"/>
      <stop offset="1" stop-color="#D5D5D5"/>
    </linearGradient>
    <linearGradient id="Gradient_4" gradientUnits="userSpaceOnUse" x1="1.307" y1="30.307" x2="179.118" y2="30.307">
      <stop offset="0" stop-color="#333333" stop-opacity="0"/>
      <stop offset="0.053" stop-color="#1A1A1A" stop-opacity="0"/>
      <stop offset="0.086" stop-color="#000000" stop-opacity="0"/>
      <stop offset="0.483" stop-color="#6C6C6C" stop-opacity="0"/>
      <stop offset="0.912" stop-color="#FFFFFF" stop-opacity="0"/>
      <stop offset="0.966" stop-color="#EFEFEF" stop-opacity="0.49"/>
      <stop offset="1" stop-color="#FFFFFF"/>
    </linearGradient>
    <linearGradient id="Gradient_5" gradientUnits="userSpaceOnUse" x1="127.989" y1="82.021" x2="127.989" y2="34.621">
      <stop offset="0" stop-color="#2B2B2B"/>
      <stop offset="1" stop-color="#D5D5D5"/>
    </linearGradient>
    <linearGradient id="Gradient_6" gradientUnits="userSpaceOnUse" x1="85.904" y1="81.111" x2="85.904" y2="35.579">
      <stop offset="0" stop-color="#2B2B2B"/>
      <stop offset="1" stop-color="#D5D5D5"/>
    </linearGradient>
    <linearGradient id="Gradient_7" gradientUnits="userSpaceOnUse" x1="48.629" y1="74.197" x2="48.629" y2="42.315">
      <stop offset="0" stop-color="#2B2B2B"/>
      <stop offset="1" stop-color="#D5D5D5"/>
    </linearGradient>
  </defs>
</svg>
